<svg width="1111" height="230" viewBox="0 0 1111 230" fill="none" xmlns="http://www.w3.org/2000/svg">
<g id="Group 211">
<g id="Setps" clip-path="url(#clip0_30_57)">
<g id="1" clip-path="url(#clip1_30_57)">
<g id="Icon Group" clip-path="url(#clip2_30_57)">
<g id="Feature Icon with circle">
<rect x="89" y="16" width="72" height="72" rx="36" fill="#E7EBFC"/>
<g id="Feature Icons / 01" clip-path="url(#clip3_30_57)">
<path id="Vector" d="M131 50H137L134 46L131 50ZM131 54H137L134 58L131 54Z" fill="#2E4FD7"/>
<path id="Vector_2" d="M114 40H120V64H114C113.735 64 113.48 63.8946 113.293 63.7071C113.105 63.5196 113 63.2652 113 63V41C113 40.7348 113.105 40.4804 113.293 40.2929C113.48 40.1054 113.735 40 114 40Z" fill="#2E4FD7"/>
<path id="Vector_3" d="M122 40H128C128.265 40 128.52 40.1054 128.707 40.2929C128.895 40.4804 129 40.7348 129 41V63C129 63.2652 128.895 63.5196 128.707 63.7071C128.52 63.8946 128.265 64 128 64H122V40Z" fill="#2E4FD7"/>
</g>
</g>
<path id="Line Indicator" d="M177 72.243C177 72.243 225.764 79.8915 261.025 73.674C296.286 67.4564 339.493 48.5911 339.493 48.5911" stroke="#B4B4B4" stroke-width="2" stroke-linecap="round" stroke-dasharray="2 6"/>
</g>
</g>
<g id="2" clip-path="url(#clip4_30_57)">
<g id="Icon Group_2" clip-path="url(#clip5_30_57)">
<g id="Feature Icon with circle_2">
<rect x="371.417" y="16" width="72" height="72" rx="36" fill="#E7EBFC"/>
<g id="Feature Icons / 03">
<g id="Group">
<path id="Vector_4" d="M418.417 46V42C418.417 41.7348 418.311 41.4804 418.124 41.2929C417.936 41.1054 417.682 41 417.417 41H397.417C397.151 41 396.897 41.1054 396.709 41.2929C396.522 41.4804 396.417 41.7348 396.417 42V46H418.417Z" fill="#2E4FD7"/>
<path id="Vector_5" d="M396.417 48V62C396.417 62.2652 396.522 62.5196 396.709 62.7071C396.897 62.8946 397.151 63 397.417 63H402.417V48H396.417Z" fill="#2E4FD7"/>
<path id="Vector_6" d="M404.417 63H417.417C417.682 63 417.936 62.8946 418.124 62.7071C418.311 62.5196 418.417 62.2652 418.417 62V48H404.417V63Z" fill="#2E4FD7"/>
</g>
</g>
</g>
<path id="Line Indicator_2" d="M459.417 28.8474C459.417 28.8474 508.18 24.1989 543.441 30.4165C578.703 36.634 621.91 52.4994 621.91 52.4994" stroke="#B4B4B4" stroke-width="2" stroke-linecap="round" stroke-dasharray="2 6"/>
</g>
</g>
<g id="3" clip-path="url(#clip6_30_57)">
<g id="Icon Group_3" clip-path="url(#clip7_30_57)">
<g id="Feature Icon with circle_3">
<rect x="656.417" y="16" width="72" height="72" rx="36" fill="#E7EBFC"/>
<g id="Feature Icons / 05">
<g id="Group_2">
<path id="Vector_7" d="M685.417 41H682.417C682.151 41 681.897 41.1054 681.709 41.2929C681.522 41.4804 681.417 41.7348 681.417 42V62C681.417 62.2652 681.522 62.5196 681.709 62.7071C681.897 62.8946 682.151 63 682.417 63H685.417V41Z" fill="#2E4FD7"/>
<path id="Vector_8" d="M687.417 63H697.417V41H687.417V63ZM692.417 59C692.151 59 691.897 58.8946 691.709 58.7071C691.522 58.5196 691.417 58.2652 691.417 58C691.417 57.7348 691.522 57.4804 691.709 57.2929C691.897 57.1054 692.151 57 692.417 57C692.682 57 692.936 57.1054 693.124 57.2929C693.311 57.4804 693.417 57.7348 693.417 58C693.417 58.2652 693.311 58.5196 693.124 58.7071C692.936 58.8946 692.682 59 692.417 59ZM692.417 45C692.682 45 692.936 45.1054 693.124 45.2929C693.311 45.4804 693.417 45.7348 693.417 46C693.417 46.2652 693.311 46.5196 693.124 46.7071C692.936 46.8946 692.682 47 692.417 47C692.151 47 691.897 46.8946 691.709 46.7071C691.522 46.5196 691.417 46.2652 691.417 46C691.417 45.7348 691.522 45.4804 691.709 45.2929C691.897 45.1054 692.151 45 692.417 45ZM692.417 51C692.682 51 692.936 51.1054 693.124 51.2929C693.311 51.4804 693.417 51.7348 693.417 52C693.417 52.2652 693.311 52.5196 693.124 52.7071C692.936 52.8946 692.682 53 692.417 53C692.151 53 691.897 52.8946 691.709 52.7071C691.522 52.5196 691.417 52.2652 691.417 52C691.417 51.7348 691.522 51.4804 691.709 51.2929C691.897 51.1054 692.151 51 692.417 51Z" fill="#2E4FD7"/>
<path id="Vector_9" d="M702.417 41H699.417V63H702.417C702.682 63 702.936 62.8946 703.124 62.7071C703.311 62.5196 703.417 62.2652 703.417 62V42C703.417 41.7348 703.311 41.4804 703.124 41.2929C702.936 41.1054 702.682 41 702.417 41Z" fill="#2E4FD7"/>
</g>
</g>
</g>
<path id="Line Indicator_3" d="M744.417 72.243C744.417 72.243 793.18 79.8915 828.442 73.674C863.703 67.4564 906.91 48.5911 906.91 48.5911" stroke="#B4B4B4" stroke-width="2" stroke-linecap="round" stroke-dasharray="2 6"/>
</g>
</g>
<g id="4" clip-path="url(#clip8_30_57)">
<g id="Feature Icon with circle_4">
<rect x="941.417" y="14" width="72" height="72" rx="36" fill="#E7EBFC"/>
<g id="Feature Icons / 07">
<g id="Group_3">
<path id="Vector_10" d="M974.417 48H967.417C967.151 48 966.897 47.8946 966.709 47.7071C966.522 47.5196 966.417 47.2652 966.417 47V40C966.417 39.7348 966.522 39.4804 966.709 39.2929C966.897 39.1054 967.151 39 967.417 39H974.417C974.682 39 974.936 39.1054 975.124 39.2929C975.311 39.4804 975.417 39.7348 975.417 40V47C975.417 47.2652 975.311 47.5196 975.124 47.7071C974.936 47.8946 974.682 48 974.417 48Z" fill="#2E4FD7"/>
<path id="Vector_11" d="M974.417 61H967.417C967.151 61 966.897 60.8946 966.709 60.7071C966.522 60.5196 966.417 60.2652 966.417 60V53C966.417 52.7348 966.522 52.4804 966.709 52.2929C966.897 52.1054 967.151 52 967.417 52H974.417C974.682 52 974.936 52.1054 975.124 52.2929C975.311 52.4804 975.417 52.7348 975.417 53V60C975.417 60.2652 975.311 60.5196 975.124 60.7071C974.936 60.8946 974.682 61 974.417 61Z" fill="#2E4FD7"/>
<path id="Vector_12" d="M978.417 40H988.417V42H978.417V40Z" fill="#2E4FD7"/>
<path id="Vector_13" d="M988.417 53H978.417V55H988.417V53Z" fill="#2E4FD7"/>
<path id="Vector_14" d="M988.417 58H978.417V60H988.417V58Z" fill="#2E4FD7"/>
<path id="Vector_15" d="M988.417 45H978.417V47H988.417V45Z" fill="#2E4FD7"/>
</g>
</g>
</g>
</g>
</g>
<g id="Group 212">
<path id="Description" d="M37.5541 154V136.545H44.5427C45.8268 136.545 46.8978 136.736 47.7558 137.116C48.6137 137.497 49.2586 138.026 49.6904 138.702C50.1223 139.372 50.3382 140.145 50.3382 141.02C50.3382 141.702 50.2018 142.301 49.9291 142.818C49.6564 143.33 49.2814 143.75 48.8041 144.08C48.3325 144.403 47.7927 144.634 47.1848 144.77V144.94C47.8495 144.969 48.4717 145.156 49.0512 145.503C49.6365 145.849 50.1109 146.335 50.4745 146.96C50.8382 147.58 51.02 148.318 51.02 149.176C51.02 150.102 50.7899 150.929 50.3296 151.656C49.8751 152.378 49.2018 152.949 48.3098 153.369C47.4177 153.79 46.3183 154 45.0115 154H37.5541ZM41.2444 150.983H44.2529C45.2814 150.983 46.0314 150.787 46.5029 150.395C46.9745 149.997 47.2103 149.469 47.2103 148.81C47.2103 148.327 47.0939 147.901 46.8609 147.531C46.6279 147.162 46.2956 146.872 45.8637 146.662C45.4376 146.452 44.9291 146.347 44.3382 146.347H41.2444V150.983ZM41.2444 143.849H43.9802C44.4859 143.849 44.9348 143.761 45.3268 143.585C45.7245 143.403 46.037 143.148 46.2643 142.818C46.4973 142.489 46.6137 142.094 46.6137 141.634C46.6137 141.003 46.3893 140.494 45.9404 140.108C45.4973 139.722 44.8666 139.528 44.0484 139.528H41.2444V143.849ZM55.1987 144.932H59.1106C60.8435 144.932 62.1958 145.347 63.1674 146.176C64.139 147 64.6248 148.102 64.6248 149.483C64.6248 150.381 64.406 151.17 63.9685 151.852C63.531 152.528 62.9004 153.057 62.0765 153.438C61.2526 153.812 60.264 154 59.1106 154H52.9231V140.909H56.3918V151.145H59.1106C59.7185 151.145 60.2185 150.991 60.6106 150.685C61.0026 150.378 61.2015 149.986 61.2072 149.509C61.2015 149.003 61.0026 148.591 60.6106 148.273C60.2185 147.949 59.7185 147.787 59.1106 147.787H55.1987V144.932ZM66.031 154V140.909H69.6617V154H66.031ZM83.0172 136.102L84.1252 138.472C83.7559 138.778 83.3468 139.006 82.8979 139.153C82.449 139.295 81.9121 139.389 81.2871 139.435C80.6678 139.48 79.9121 139.511 79.0201 139.528C78.0087 139.54 77.1848 139.702 76.5485 140.014C75.9121 140.327 75.4292 140.818 75.0996 141.489C74.7701 142.153 74.5542 143.023 74.4519 144.097H74.5797C74.9718 143.295 75.5229 142.676 76.2331 142.239C76.949 141.801 77.8326 141.582 78.8837 141.582C79.9973 141.582 80.9718 141.827 81.807 142.315C82.6479 142.804 83.3013 143.506 83.7672 144.42C84.2331 145.335 84.4661 146.432 84.4661 147.71C84.4661 149.04 84.2047 150.196 83.682 151.179C83.165 152.156 82.4292 152.915 81.4746 153.455C80.5201 153.989 79.3837 154.256 78.0655 154.256C76.7417 154.256 75.5996 153.977 74.6394 153.42C73.6848 152.864 72.9462 152.043 72.4235 150.957C71.9064 149.872 71.6479 148.537 71.6479 146.952V145.878C71.6479 142.724 72.2615 140.386 73.4888 138.864C74.7161 137.341 76.5201 136.568 78.9008 136.545C79.5485 136.534 80.1337 136.531 80.6564 136.537C81.1792 136.543 81.6365 136.517 82.0286 136.46C82.4263 136.403 82.7559 136.284 83.0172 136.102ZM78.0826 151.443C78.6394 151.443 79.1167 151.298 79.5144 151.009C79.9178 150.719 80.2275 150.304 80.4434 149.764C80.665 149.224 80.7758 148.58 80.7758 147.83C80.7758 147.085 80.665 146.455 80.4434 145.938C80.2275 145.415 79.9178 145.017 79.5144 144.744C79.111 144.472 78.628 144.335 78.0655 144.335C77.6451 144.335 77.2672 144.412 76.932 144.565C76.5968 144.719 76.3098 144.946 76.0712 145.247C75.8383 145.543 75.6564 145.909 75.5258 146.347C75.4008 146.778 75.3383 147.273 75.3383 147.83C75.3383 148.949 75.5797 149.832 76.0627 150.48C76.5513 151.122 77.2246 151.443 78.0826 151.443ZM86.4459 158.909V140.909H90.0254V143.108H90.1874C90.3465 142.756 90.5766 142.398 90.8777 142.034C91.1845 141.665 91.5823 141.358 92.0709 141.114C92.5652 140.864 93.1789 140.739 93.9118 140.739C94.8664 140.739 95.747 140.989 96.5539 141.489C97.3607 141.983 98.0056 142.73 98.4885 143.73C98.9715 144.724 99.2129 145.972 99.2129 147.472C99.2129 148.932 98.9771 150.165 98.5056 151.17C98.0396 152.17 97.4033 152.929 96.5965 153.446C95.7953 153.957 94.8976 154.213 93.9033 154.213C93.1987 154.213 92.5993 154.097 92.105 153.864C91.6164 153.631 91.2158 153.338 90.9033 152.986C90.5908 152.628 90.3521 152.267 90.1874 151.903H90.0766V158.909H86.4459ZM89.9999 147.455C89.9999 148.233 90.1078 148.912 90.3237 149.491C90.5396 150.071 90.8521 150.523 91.2612 150.847C91.6703 151.165 92.1675 151.324 92.7527 151.324C93.3436 151.324 93.8436 151.162 94.2527 150.838C94.6618 150.509 94.9715 150.054 95.1817 149.474C95.3976 148.889 95.5056 148.216 95.5056 147.455C95.5056 146.699 95.4004 146.034 95.1902 145.46C94.98 144.886 94.6703 144.437 94.2612 144.114C93.8521 143.79 93.3493 143.628 92.7527 143.628C92.1618 143.628 91.6618 143.784 91.2527 144.097C90.8493 144.409 90.5396 144.852 90.3237 145.426C90.1078 146 89.9999 146.676 89.9999 147.455ZM104.936 154.247C104.101 154.247 103.357 154.102 102.703 153.812C102.05 153.517 101.533 153.082 101.152 152.509C100.777 151.929 100.59 151.207 100.59 150.344C100.59 149.616 100.723 149.006 100.99 148.511C101.257 148.017 101.621 147.619 102.081 147.318C102.541 147.017 103.064 146.79 103.649 146.636C104.24 146.483 104.86 146.375 105.507 146.312C106.269 146.233 106.882 146.159 107.348 146.091C107.814 146.017 108.152 145.909 108.362 145.767C108.573 145.625 108.678 145.415 108.678 145.136V145.085C108.678 144.545 108.507 144.128 108.166 143.832C107.831 143.537 107.354 143.389 106.735 143.389C106.081 143.389 105.561 143.534 105.175 143.824C104.789 144.108 104.533 144.466 104.408 144.898L101.05 144.625C101.22 143.83 101.556 143.142 102.056 142.562C102.556 141.977 103.201 141.528 103.99 141.216C104.786 140.898 105.706 140.739 106.752 140.739C107.479 140.739 108.175 140.824 108.84 140.994C109.51 141.165 110.104 141.429 110.621 141.787C111.144 142.145 111.556 142.605 111.857 143.168C112.158 143.724 112.309 144.392 112.309 145.17V154H108.865V152.185H108.763C108.553 152.594 108.272 152.955 107.919 153.267C107.567 153.574 107.144 153.815 106.649 153.991C106.155 154.162 105.584 154.247 104.936 154.247ZM105.976 151.741C106.51 151.741 106.982 151.636 107.391 151.426C107.8 151.21 108.121 150.92 108.354 150.557C108.587 150.193 108.703 149.781 108.703 149.321V147.932C108.59 148.006 108.434 148.074 108.235 148.136C108.041 148.193 107.823 148.247 107.578 148.298C107.334 148.344 107.09 148.386 106.845 148.426C106.601 148.46 106.38 148.491 106.181 148.52C105.755 148.582 105.382 148.682 105.064 148.818C104.746 148.955 104.499 149.139 104.323 149.372C104.147 149.599 104.059 149.884 104.059 150.224C104.059 150.719 104.237 151.097 104.595 151.358C104.959 151.614 105.419 151.741 105.976 151.741ZM113.381 143.764V140.909H125.244V143.764H121.026V154H117.565V143.764H113.381ZM129.291 144.932H133.203C134.936 144.932 136.288 145.347 137.26 146.176C138.231 147 138.717 148.102 138.717 149.483C138.717 150.381 138.498 151.17 138.061 151.852C137.623 152.528 136.993 153.057 136.169 153.438C135.345 153.812 134.356 154 133.203 154H127.015V140.909H130.484V151.145H133.203C133.811 151.145 134.311 150.991 134.703 150.685C135.095 150.378 135.294 149.986 135.299 149.509C135.294 149.003 135.095 148.591 134.703 148.273C134.311 147.949 133.811 147.787 133.203 147.787H129.291V144.932ZM151.734 154.256C150.393 154.256 149.24 153.972 148.274 153.403C147.314 152.83 146.575 152.034 146.058 151.017C145.547 150 145.291 148.83 145.291 147.506C145.291 146.165 145.549 144.989 146.066 143.977C146.589 142.96 147.331 142.168 148.291 141.599C149.251 141.026 150.393 140.739 151.717 140.739C152.859 140.739 153.859 140.946 154.717 141.361C155.575 141.776 156.254 142.358 156.754 143.108C157.254 143.858 157.53 144.739 157.581 145.75H154.155C154.058 145.097 153.802 144.571 153.388 144.173C152.978 143.77 152.441 143.568 151.777 143.568C151.214 143.568 150.723 143.722 150.302 144.028C149.888 144.33 149.564 144.77 149.331 145.349C149.098 145.929 148.981 146.631 148.981 147.455C148.981 148.29 149.095 149 149.322 149.585C149.555 150.17 149.882 150.616 150.302 150.923C150.723 151.23 151.214 151.384 151.777 151.384C152.191 151.384 152.564 151.298 152.893 151.128C153.228 150.957 153.504 150.71 153.72 150.386C153.941 150.057 154.086 149.662 154.155 149.202H157.581C157.524 150.202 157.251 151.082 156.763 151.844C156.28 152.599 155.612 153.19 154.76 153.616C153.907 154.043 152.899 154.256 151.734 154.256ZM165.739 158.449V136.545H169.362V158.449H165.739ZM165.739 154.256C164.734 154.256 163.816 154.094 162.987 153.77C162.157 153.44 161.441 152.977 160.839 152.381C160.237 151.778 159.771 151.065 159.441 150.241C159.112 149.412 158.947 148.5 158.947 147.506C158.947 146.5 159.112 145.585 159.441 144.761C159.771 143.932 160.237 143.219 160.839 142.622C161.441 142.02 162.157 141.557 162.987 141.233C163.816 140.903 164.734 140.739 165.739 140.739H166.413V154.256H165.739ZM165.739 151.426H166.14V143.568H165.739C165.251 143.568 164.816 143.67 164.435 143.875C164.055 144.08 163.734 144.361 163.472 144.719C163.211 145.071 163.012 145.486 162.876 145.963C162.745 146.44 162.68 146.955 162.68 147.506C162.68 148.233 162.799 148.895 163.038 149.491C163.276 150.082 163.626 150.554 164.086 150.906C164.546 151.253 165.097 151.426 165.739 151.426ZM169.362 154.256H168.688V140.739H169.362C170.367 140.739 171.285 140.903 172.114 141.233C172.944 141.557 173.66 142.02 174.262 142.622C174.864 143.219 175.33 143.932 175.66 144.761C175.989 145.585 176.154 146.5 176.154 147.506C176.154 148.5 175.989 149.412 175.66 150.241C175.33 151.065 174.864 151.778 174.262 152.381C173.66 152.977 172.944 153.44 172.114 153.77C171.285 154.094 170.367 154.256 169.362 154.256ZM169.362 151.426C169.85 151.426 170.285 151.327 170.666 151.128C171.046 150.923 171.367 150.642 171.629 150.284C171.89 149.926 172.089 149.511 172.225 149.04C172.362 148.562 172.43 148.051 172.43 147.506C172.43 146.773 172.308 146.111 172.063 145.52C171.825 144.923 171.478 144.449 171.024 144.097C170.569 143.744 170.015 143.568 169.362 143.568H168.961V151.426H169.362ZM184.066 154.256C182.719 154.256 181.56 153.983 180.589 153.438C179.623 152.886 178.878 152.108 178.356 151.102C177.833 150.091 177.572 148.895 177.572 147.514C177.572 146.168 177.833 144.986 178.356 143.969C178.878 142.952 179.614 142.159 180.563 141.591C181.518 141.023 182.637 140.739 183.921 140.739C184.785 140.739 185.589 140.878 186.333 141.156C187.083 141.429 187.736 141.841 188.293 142.392C188.856 142.943 189.293 143.636 189.606 144.472C189.918 145.301 190.074 146.273 190.074 147.386V148.384H179.02V146.134H186.657C186.657 145.611 186.543 145.148 186.316 144.744C186.089 144.341 185.773 144.026 185.37 143.798C184.972 143.565 184.509 143.449 183.981 143.449C183.43 143.449 182.941 143.577 182.515 143.832C182.094 144.082 181.765 144.42 181.526 144.847C181.287 145.267 181.165 145.736 181.16 146.253V148.392C181.16 149.04 181.279 149.599 181.518 150.071C181.762 150.543 182.106 150.906 182.549 151.162C182.992 151.418 183.518 151.545 184.126 151.545C184.529 151.545 184.898 151.489 185.233 151.375C185.569 151.261 185.856 151.091 186.094 150.864C186.333 150.636 186.515 150.358 186.64 150.028L189.998 150.25C189.827 151.057 189.478 151.761 188.949 152.364C188.427 152.96 187.751 153.426 186.921 153.761C186.097 154.091 185.145 154.256 184.066 154.256ZM192.014 158.909V140.909H195.593V143.108H195.755C195.914 142.756 196.144 142.398 196.446 142.034C196.752 141.665 197.15 141.358 197.639 141.114C198.133 140.864 198.747 140.739 199.48 140.739C200.434 140.739 201.315 140.989 202.122 141.489C202.928 141.983 203.573 142.73 204.056 143.73C204.539 144.724 204.781 145.972 204.781 147.472C204.781 148.932 204.545 150.165 204.073 151.17C203.607 152.17 202.971 152.929 202.164 153.446C201.363 153.957 200.465 154.213 199.471 154.213C198.767 154.213 198.167 154.097 197.673 153.864C197.184 153.631 196.784 153.338 196.471 152.986C196.159 152.628 195.92 152.267 195.755 151.903H195.644V158.909H192.014ZM195.568 147.455C195.568 148.233 195.676 148.912 195.892 149.491C196.107 150.071 196.42 150.523 196.829 150.847C197.238 151.165 197.735 151.324 198.321 151.324C198.911 151.324 199.411 151.162 199.821 150.838C200.23 150.509 200.539 150.054 200.75 149.474C200.965 148.889 201.073 148.216 201.073 147.455C201.073 146.699 200.968 146.034 200.758 145.46C200.548 144.886 200.238 144.437 199.829 144.114C199.42 143.79 198.917 143.628 198.321 143.628C197.73 143.628 197.23 143.784 196.821 144.097C196.417 144.409 196.107 144.852 195.892 145.426C195.676 146 195.568 146.676 195.568 147.455ZM208.591 158.909C208.131 158.909 207.699 158.872 207.295 158.798C206.898 158.73 206.568 158.642 206.307 158.534L207.125 155.824C207.551 155.955 207.935 156.026 208.275 156.037C208.622 156.048 208.92 155.969 209.17 155.798C209.426 155.628 209.633 155.338 209.793 154.929L210.006 154.375L205.31 140.909H209.128L211.838 150.523H211.974L214.71 140.909H218.554L213.466 155.415C213.221 156.119 212.889 156.733 212.469 157.256C212.054 157.784 211.528 158.19 210.892 158.474C210.256 158.764 209.489 158.909 208.591 158.909Z" fill="#18191F"/>
<path id="Description_2" d="M300.258 154V136.545H303.948V143.747H311.44V136.545H315.121V154H311.44V146.79H303.948V154H300.258ZM321.399 154.247C320.564 154.247 319.819 154.102 319.166 153.812C318.512 153.517 317.995 153.082 317.615 152.509C317.24 151.929 317.052 151.207 317.052 150.344C317.052 149.616 317.186 149.006 317.453 148.511C317.72 148.017 318.084 147.619 318.544 147.318C319.004 147.017 319.527 146.79 320.112 146.636C320.703 146.483 321.322 146.375 321.97 146.312C322.731 146.233 323.345 146.159 323.811 146.091C324.277 146.017 324.615 145.909 324.825 145.767C325.035 145.625 325.14 145.415 325.14 145.136V145.085C325.14 144.545 324.97 144.128 324.629 143.832C324.294 143.537 323.816 143.389 323.197 143.389C322.544 143.389 322.024 143.534 321.637 143.824C321.251 144.108 320.995 144.466 320.87 144.898L317.512 144.625C317.683 143.83 318.018 143.142 318.518 142.562C319.018 141.977 319.663 141.528 320.453 141.216C321.248 140.898 322.169 140.739 323.214 140.739C323.941 140.739 324.637 140.824 325.302 140.994C325.973 141.165 326.566 141.429 327.084 141.787C327.606 142.145 328.018 142.605 328.319 143.168C328.62 143.724 328.771 144.392 328.771 145.17V154H325.328V152.185H325.226C325.015 152.594 324.734 152.955 324.382 153.267C324.03 153.574 323.606 153.815 323.112 153.991C322.618 154.162 322.047 154.247 321.399 154.247ZM322.439 151.741C322.973 151.741 323.444 151.636 323.853 151.426C324.262 151.21 324.584 150.92 324.816 150.557C325.049 150.193 325.166 149.781 325.166 149.321V147.932C325.052 148.006 324.896 148.074 324.697 148.136C324.504 148.193 324.285 148.247 324.041 148.298C323.797 148.344 323.552 148.386 323.308 148.426C323.064 148.46 322.842 148.491 322.643 148.52C322.217 148.582 321.845 148.682 321.527 148.818C321.209 148.955 320.961 149.139 320.785 149.372C320.609 149.599 320.521 149.884 320.521 150.224C320.521 150.719 320.7 151.097 321.058 151.358C321.422 151.614 321.882 151.741 322.439 151.741ZM334.627 149.21L339.34 140.909H342.919V154H339.459V145.673L334.763 154H331.158V140.909H334.627V149.21ZM338.717 136.341H341.249C341.243 137.375 340.859 138.207 340.098 138.838C339.342 139.469 338.32 139.784 337.03 139.784C335.734 139.784 334.709 139.469 333.953 138.838C333.198 138.207 332.82 137.375 332.82 136.341H335.334C335.328 136.733 335.453 137.085 335.709 137.398C335.97 137.71 336.411 137.866 337.03 137.866C337.632 137.866 338.064 137.713 338.325 137.406C338.587 137.099 338.717 136.744 338.717 136.341ZM344.085 143.764V140.909H355.949V143.764H351.73V154H348.27V143.764H344.085ZM361.188 149.21L365.901 140.909H369.481V154H366.021V145.673L361.325 154H357.72V140.909H361.188V149.21ZM377.086 154V140.909H388.532V154H385.063V143.764H380.512V154H377.086ZM396.915 154.256C395.591 154.256 394.446 153.974 393.48 153.412C392.52 152.844 391.778 152.054 391.256 151.043C390.733 150.026 390.472 148.847 390.472 147.506C390.472 146.153 390.733 144.972 391.256 143.96C391.778 142.943 392.52 142.153 393.48 141.591C394.446 141.023 395.591 140.739 396.915 140.739C398.239 140.739 399.381 141.023 400.341 141.591C401.307 142.153 402.051 142.943 402.574 143.96C403.097 144.972 403.358 146.153 403.358 147.506C403.358 148.847 403.097 150.026 402.574 151.043C402.051 152.054 401.307 152.844 400.341 153.412C399.381 153.974 398.239 154.256 396.915 154.256ZM396.932 151.443C397.534 151.443 398.037 151.273 398.44 150.932C398.844 150.585 399.148 150.114 399.352 149.517C399.562 148.92 399.668 148.241 399.668 147.48C399.668 146.719 399.562 146.04 399.352 145.443C399.148 144.847 398.844 144.375 398.44 144.028C398.037 143.682 397.534 143.509 396.932 143.509C396.324 143.509 395.812 143.682 395.398 144.028C394.989 144.375 394.679 144.847 394.469 145.443C394.264 146.04 394.162 146.719 394.162 147.48C394.162 148.241 394.264 148.92 394.469 149.517C394.679 150.114 394.989 150.585 395.398 150.932C395.812 151.273 396.324 151.443 396.932 151.443ZM404.266 157.835V151.119H405.272C405.561 150.937 405.794 150.648 405.971 150.25C406.152 149.852 406.3 149.384 406.414 148.844C406.533 148.304 406.624 147.722 406.686 147.097C406.755 146.466 406.814 145.83 406.865 145.188L407.206 140.909H417.246V151.119H419.275V157.835H415.814V154H407.811V157.835H404.266ZM408.885 151.119H413.82V143.705H410.292L410.155 145.188C410.059 146.585 409.919 147.773 409.738 148.75C409.556 149.722 409.272 150.511 408.885 151.119ZM423.994 140.909L426.398 145.486L428.861 140.909H432.585L428.793 147.455L432.688 154H428.98L426.398 149.474L423.858 154H420.108L423.994 147.455L420.244 140.909H423.994ZM439.758 154.256C438.434 154.256 437.289 153.974 436.323 153.412C435.363 152.844 434.621 152.054 434.098 151.043C433.576 150.026 433.314 148.847 433.314 147.506C433.314 146.153 433.576 144.972 434.098 143.96C434.621 142.943 435.363 142.153 436.323 141.591C437.289 141.023 438.434 140.739 439.758 140.739C441.081 140.739 442.223 141.023 443.184 141.591C444.15 142.153 444.894 142.943 445.417 143.96C445.939 144.972 446.201 146.153 446.201 147.506C446.201 148.847 445.939 150.026 445.417 151.043C444.894 152.054 444.15 152.844 443.184 153.412C442.223 153.974 441.081 154.256 439.758 154.256ZM439.775 151.443C440.377 151.443 440.88 151.273 441.283 150.932C441.687 150.585 441.99 150.114 442.195 149.517C442.405 148.92 442.51 148.241 442.51 147.48C442.51 146.719 442.405 146.04 442.195 145.443C441.99 144.847 441.687 144.375 441.283 144.028C440.88 143.682 440.377 143.509 439.775 143.509C439.167 143.509 438.655 143.682 438.24 144.028C437.831 144.375 437.522 144.847 437.312 145.443C437.107 146.04 437.005 146.719 437.005 147.48C437.005 148.241 437.107 148.92 437.312 149.517C437.522 150.114 437.831 150.585 438.24 150.932C438.655 151.273 439.167 151.443 439.775 151.443ZM447.109 157.835V151.119H448.114C448.404 150.937 448.637 150.648 448.813 150.25C448.995 149.852 449.143 149.384 449.257 148.844C449.376 148.304 449.467 147.722 449.529 147.097C449.597 146.466 449.657 145.83 449.708 145.188L450.049 140.909H460.089V151.119H462.117V157.835H458.657V154H450.654V157.835H447.109ZM451.728 151.119H456.663V143.705H453.134L452.998 145.188C452.901 146.585 452.762 147.773 452.58 148.75C452.399 149.722 452.114 150.511 451.728 151.119ZM471.474 154V143.756H469.019C468.354 143.756 467.849 143.909 467.502 144.216C467.155 144.523 466.985 144.886 466.991 145.307C466.985 145.733 467.15 146.094 467.485 146.389C467.826 146.679 468.326 146.824 468.985 146.824H472.684V149.278H468.985C467.866 149.278 466.897 149.108 466.079 148.767C465.26 148.426 464.63 147.952 464.187 147.344C463.743 146.73 463.525 146.017 463.53 145.205C463.525 144.352 463.743 143.605 464.187 142.963C464.63 142.315 465.263 141.812 466.087 141.455C466.917 141.091 467.894 140.909 469.019 140.909H474.857V154H471.474ZM463.155 154L466.795 147.182H470.263L466.633 154H463.155ZM497.813 151.145L497.558 157.75H494.225V154H492.768V151.145H497.813ZM477.248 140.909H480.717V151.119H484.407V140.909H487.876V151.119H491.566V140.909H495.035V154H477.248V140.909ZM503.021 149.21L507.734 140.909H511.314V154H507.854V145.673L503.158 154H499.552V140.909H503.021V149.21ZM519.76 154.256C518.414 154.256 517.255 153.983 516.283 153.438C515.317 152.886 514.573 152.108 514.05 151.102C513.527 150.091 513.266 148.895 513.266 147.514C513.266 146.168 513.527 144.986 514.05 143.969C514.573 142.952 515.309 142.159 516.257 141.591C517.212 141.023 518.331 140.739 519.615 140.739C520.479 140.739 521.283 140.878 522.027 141.156C522.777 141.429 523.431 141.841 523.988 142.392C524.55 142.943 524.988 143.636 525.3 144.472C525.613 145.301 525.769 146.273 525.769 147.386V148.384H514.715V146.134H522.351C522.351 145.611 522.238 145.148 522.01 144.744C521.783 144.341 521.468 144.026 521.064 143.798C520.666 143.565 520.203 143.449 519.675 143.449C519.124 143.449 518.635 143.577 518.209 143.832C517.789 144.082 517.459 144.42 517.22 144.847C516.982 145.267 516.86 145.736 516.854 146.253V148.392C516.854 149.04 516.973 149.599 517.212 150.071C517.456 150.543 517.8 150.906 518.243 151.162C518.686 151.418 519.212 151.545 519.82 151.545C520.223 151.545 520.593 151.489 520.928 151.375C521.263 151.261 521.55 151.091 521.789 150.864C522.027 150.636 522.209 150.358 522.334 150.028L525.692 150.25C525.522 151.057 525.172 151.761 524.644 152.364C524.121 152.96 523.445 153.426 522.615 153.761C521.791 154.091 520.84 154.256 519.76 154.256ZM376.184 188V174.909H379.815V179.989H380.837L384.4 174.909H388.661L384.033 181.403L388.712 188H384.4L381.17 183.355H379.815V188H376.184ZM392.269 192.909C391.809 192.909 391.377 192.872 390.973 192.798C390.576 192.73 390.246 192.642 389.985 192.534L390.803 189.824C391.229 189.955 391.613 190.026 391.953 190.037C392.3 190.048 392.598 189.969 392.848 189.798C393.104 189.628 393.311 189.338 393.47 188.929L393.684 188.375L388.988 174.909H392.806L395.516 184.523H395.652L398.388 174.909H402.232L397.144 189.415C396.899 190.119 396.567 190.733 396.147 191.256C395.732 191.784 395.206 192.19 394.57 192.474C393.934 192.764 393.167 192.909 392.269 192.909ZM403.66 192.909V174.909H407.239V177.108H407.401C407.56 176.756 407.79 176.398 408.092 176.034C408.398 175.665 408.796 175.358 409.285 175.114C409.779 174.864 410.393 174.739 411.126 174.739C412.08 174.739 412.961 174.989 413.768 175.489C414.575 175.983 415.219 176.73 415.702 177.73C416.185 178.724 416.427 179.972 416.427 181.472C416.427 182.932 416.191 184.165 415.719 185.17C415.254 186.17 414.617 186.929 413.81 187.446C413.009 187.957 412.112 188.213 411.117 188.213C410.413 188.213 409.813 188.097 409.319 187.864C408.83 187.631 408.43 187.338 408.117 186.986C407.805 186.628 407.566 186.267 407.401 185.903H407.29V192.909H403.66ZM407.214 181.455C407.214 182.233 407.322 182.912 407.538 183.491C407.754 184.071 408.066 184.523 408.475 184.847C408.884 185.165 409.381 185.324 409.967 185.324C410.558 185.324 411.058 185.162 411.467 184.838C411.876 184.509 412.185 184.054 412.396 183.474C412.612 182.889 412.719 182.216 412.719 181.455C412.719 180.699 412.614 180.034 412.404 179.46C412.194 178.886 411.884 178.437 411.475 178.114C411.066 177.79 410.563 177.628 409.967 177.628C409.376 177.628 408.876 177.784 408.467 178.097C408.063 178.409 407.754 178.852 407.538 179.426C407.322 180 407.214 180.676 407.214 181.455ZM424.332 188.256C422.991 188.256 421.838 187.972 420.872 187.403C419.912 186.83 419.173 186.034 418.656 185.017C418.145 184 417.889 182.83 417.889 181.506C417.889 180.165 418.147 178.989 418.664 177.977C419.187 176.96 419.929 176.168 420.889 175.599C421.849 175.026 422.991 174.739 424.315 174.739C425.457 174.739 426.457 174.946 427.315 175.361C428.173 175.776 428.852 176.358 429.352 177.108C429.852 177.858 430.128 178.739 430.179 179.75H426.753C426.656 179.097 426.4 178.571 425.985 178.173C425.576 177.77 425.039 177.568 424.375 177.568C423.812 177.568 423.321 177.722 422.9 178.028C422.485 178.33 422.162 178.77 421.929 179.349C421.696 179.929 421.579 180.631 421.579 181.455C421.579 182.29 421.693 183 421.92 183.585C422.153 184.17 422.48 184.616 422.9 184.923C423.321 185.23 423.812 185.384 424.375 185.384C424.789 185.384 425.162 185.298 425.491 185.128C425.826 184.957 426.102 184.71 426.318 184.386C426.539 184.057 426.684 183.662 426.753 183.202H430.179C430.122 184.202 429.849 185.082 429.36 185.844C428.878 186.599 428.21 187.19 427.358 187.616C426.505 188.043 425.497 188.256 424.332 188.256ZM434.349 178.932H438.261C439.994 178.932 441.346 179.347 442.318 180.176C443.289 181 443.775 182.102 443.775 183.483C443.775 184.381 443.556 185.17 443.119 185.852C442.681 186.528 442.051 187.057 441.227 187.438C440.403 187.812 439.414 188 438.261 188H432.073V174.909H435.542V185.145H438.261C438.869 185.145 439.369 184.991 439.761 184.685C440.153 184.378 440.352 183.986 440.357 183.509C440.352 183.003 440.153 182.591 439.761 182.273C439.369 181.949 438.869 181.787 438.261 181.787H434.349V178.932ZM445.181 188V174.909H448.812V188H445.181Z" fill="#18191F"/>
<path id="Description_3" d="M600.203 154V136.545H607.191C608.476 136.545 609.547 136.736 610.405 137.116C611.262 137.497 611.907 138.026 612.339 138.702C612.771 139.372 612.987 140.145 612.987 141.02C612.987 141.702 612.851 142.301 612.578 142.818C612.305 143.33 611.93 143.75 611.453 144.08C610.981 144.403 610.441 144.634 609.834 144.77V144.94C610.498 144.969 611.12 145.156 611.7 145.503C612.285 145.849 612.76 146.335 613.123 146.96C613.487 147.58 613.669 148.318 613.669 149.176C613.669 150.102 613.439 150.929 612.978 151.656C612.524 152.378 611.851 152.949 610.959 153.369C610.066 153.79 608.967 154 607.66 154H600.203ZM603.893 150.983H606.902C607.93 150.983 608.68 150.787 609.152 150.395C609.623 149.997 609.859 149.469 609.859 148.81C609.859 148.327 609.743 147.901 609.51 147.531C609.277 147.162 608.944 146.872 608.512 146.662C608.086 146.452 607.578 146.347 606.987 146.347H603.893V150.983ZM603.893 143.849H606.629C607.135 143.849 607.584 143.761 607.976 143.585C608.373 143.403 608.686 143.148 608.913 142.818C609.146 142.489 609.262 142.094 609.262 141.634C609.262 141.003 609.038 140.494 608.589 140.108C608.146 139.722 607.515 139.528 606.697 139.528H603.893V143.849ZM617.847 144.932H621.759C623.492 144.932 624.845 145.347 625.816 146.176C626.788 147 627.274 148.102 627.274 149.483C627.274 150.381 627.055 151.17 626.617 151.852C626.18 152.528 625.549 153.057 624.725 153.438C623.901 153.812 622.913 154 621.759 154H615.572V140.909H619.041V151.145H621.759C622.367 151.145 622.867 150.991 623.259 150.685C623.651 150.378 623.85 149.986 623.856 149.509C623.85 149.003 623.651 148.591 623.259 148.273C622.867 147.949 622.367 147.787 621.759 147.787H617.847V144.932ZM628.68 154V140.909H632.31V154H628.68ZM645.666 136.102L646.774 138.472C646.405 138.778 645.996 139.006 645.547 139.153C645.098 139.295 644.561 139.389 643.936 139.435C643.317 139.48 642.561 139.511 641.669 139.528C640.657 139.54 639.834 139.702 639.197 140.014C638.561 140.327 638.078 140.818 637.748 141.489C637.419 142.153 637.203 143.023 637.101 144.097H637.228C637.621 143.295 638.172 142.676 638.882 142.239C639.598 141.801 640.481 141.582 641.532 141.582C642.646 141.582 643.621 141.827 644.456 142.315C645.297 142.804 645.95 143.506 646.416 144.42C646.882 145.335 647.115 146.432 647.115 147.71C647.115 149.04 646.853 150.196 646.331 151.179C645.814 152.156 645.078 152.915 644.123 153.455C643.169 153.989 642.032 154.256 640.714 154.256C639.39 154.256 638.248 153.977 637.288 153.42C636.334 152.864 635.595 152.043 635.072 150.957C634.555 149.872 634.297 148.537 634.297 146.952V145.878C634.297 142.724 634.91 140.386 636.138 138.864C637.365 137.341 639.169 136.568 641.55 136.545C642.197 136.534 642.782 136.531 643.305 136.537C643.828 136.543 644.285 136.517 644.677 136.46C645.075 136.403 645.405 136.284 645.666 136.102ZM640.731 151.443C641.288 151.443 641.765 151.298 642.163 151.009C642.567 150.719 642.876 150.304 643.092 149.764C643.314 149.224 643.425 148.58 643.425 147.83C643.425 147.085 643.314 146.455 643.092 145.938C642.876 145.415 642.567 145.017 642.163 144.744C641.76 144.472 641.277 144.335 640.714 144.335C640.294 144.335 639.916 144.412 639.581 144.565C639.246 144.719 638.959 144.946 638.72 145.247C638.487 145.543 638.305 145.909 638.175 146.347C638.05 146.778 637.987 147.273 637.987 147.83C637.987 148.949 638.228 149.832 638.711 150.48C639.2 151.122 639.873 151.443 640.731 151.443ZM649.095 158.909V140.909H652.674V143.108H652.836C652.995 142.756 653.225 142.398 653.526 142.034C653.833 141.665 654.231 141.358 654.72 141.114C655.214 140.864 655.828 140.739 656.561 140.739C657.515 140.739 658.396 140.989 659.203 141.489C660.009 141.983 660.654 142.73 661.137 143.73C661.62 144.724 661.862 145.972 661.862 147.472C661.862 148.932 661.626 150.165 661.154 151.17C660.688 152.17 660.052 152.929 659.245 153.446C658.444 153.957 657.546 154.213 656.552 154.213C655.847 154.213 655.248 154.097 654.754 153.864C654.265 153.631 653.865 153.338 653.552 152.986C653.24 152.628 653.001 152.267 652.836 151.903H652.725V158.909H649.095ZM652.649 147.455C652.649 148.233 652.757 148.912 652.972 149.491C653.188 150.071 653.501 150.523 653.91 150.847C654.319 151.165 654.816 151.324 655.401 151.324C655.992 151.324 656.492 151.162 656.901 150.838C657.311 150.509 657.62 150.054 657.83 149.474C658.046 148.889 658.154 148.216 658.154 147.455C658.154 146.699 658.049 146.034 657.839 145.46C657.629 144.886 657.319 144.437 656.91 144.114C656.501 143.79 655.998 143.628 655.401 143.628C654.811 143.628 654.311 143.784 653.901 144.097C653.498 144.409 653.188 144.852 652.972 145.426C652.757 146 652.649 146.676 652.649 147.455ZM667.585 154.247C666.75 154.247 666.006 154.102 665.352 153.812C664.699 153.517 664.182 153.082 663.801 152.509C663.426 151.929 663.239 151.207 663.239 150.344C663.239 149.616 663.372 149.006 663.639 148.511C663.906 148.017 664.27 147.619 664.73 147.318C665.19 147.017 665.713 146.79 666.298 146.636C666.889 146.483 667.508 146.375 668.156 146.312C668.917 146.233 669.531 146.159 669.997 146.091C670.463 146.017 670.801 145.909 671.011 145.767C671.221 145.625 671.327 145.415 671.327 145.136V145.085C671.327 144.545 671.156 144.128 670.815 143.832C670.48 143.537 670.003 143.389 669.383 143.389C668.73 143.389 668.21 143.534 667.824 143.824C667.437 144.108 667.182 144.466 667.057 144.898L663.699 144.625C663.869 143.83 664.204 143.142 664.704 142.562C665.204 141.977 665.849 141.528 666.639 141.216C667.435 140.898 668.355 140.739 669.4 140.739C670.128 140.739 670.824 140.824 671.489 140.994C672.159 141.165 672.753 141.429 673.27 141.787C673.792 142.145 674.204 142.605 674.506 143.168C674.807 143.724 674.957 144.392 674.957 145.17V154H671.514V152.185H671.412C671.202 152.594 670.92 152.955 670.568 153.267C670.216 153.574 669.792 153.815 669.298 153.991C668.804 154.162 668.233 154.247 667.585 154.247ZM668.625 151.741C669.159 151.741 669.631 151.636 670.04 151.426C670.449 151.21 670.77 150.92 671.003 150.557C671.236 150.193 671.352 149.781 671.352 149.321V147.932C671.239 148.006 671.082 148.074 670.883 148.136C670.69 148.193 670.471 148.247 670.227 148.298C669.983 148.344 669.739 148.386 669.494 148.426C669.25 148.46 669.028 148.491 668.829 148.52C668.403 148.582 668.031 148.682 667.713 148.818C667.395 148.955 667.148 149.139 666.971 149.372C666.795 149.599 666.707 149.884 666.707 150.224C666.707 150.719 666.886 151.097 667.244 151.358C667.608 151.614 668.068 151.741 668.625 151.741ZM676.029 143.764V140.909H687.893V143.764H683.674V154H680.214V143.764H676.029ZM691.94 144.932H695.852C697.584 144.932 698.937 145.347 699.908 146.176C700.88 147 701.366 148.102 701.366 149.483C701.366 150.381 701.147 151.17 700.709 151.852C700.272 152.528 699.641 153.057 698.817 153.438C697.994 153.812 697.005 154 695.852 154H689.664V140.909H693.133V151.145H695.852C696.459 151.145 696.959 150.991 697.352 150.685C697.744 150.378 697.942 149.986 697.948 149.509C697.942 149.003 697.744 148.591 697.352 148.273C696.959 147.949 696.459 147.787 695.852 147.787H691.94V144.932ZM707.701 154L707.684 151.119H708.119C708.425 151.119 708.69 151.045 708.911 150.898C709.139 150.744 709.326 150.497 709.474 150.156C709.621 149.815 709.738 149.364 709.823 148.801C709.908 148.233 709.965 147.534 709.994 146.705L710.207 140.909H720.161V154H716.701V143.764H713.471L713.266 147.761C713.215 148.858 713.082 149.801 712.866 150.591C712.656 151.381 712.363 152.028 711.988 152.534C711.613 153.034 711.161 153.403 710.633 153.642C710.104 153.881 709.491 154 708.792 154H707.701ZM724.319 158.909C723.858 158.909 723.427 158.872 723.023 158.798C722.625 158.73 722.296 158.642 722.035 158.534L722.853 155.824C723.279 155.955 723.662 156.026 724.003 156.037C724.35 156.048 724.648 155.969 724.898 155.798C725.154 155.628 725.361 155.338 725.52 154.929L725.733 154.375L721.037 140.909H724.856L727.566 150.523H727.702L730.438 140.909H734.282L729.194 155.415C728.949 156.119 728.617 156.733 728.196 157.256C727.782 157.784 727.256 158.19 726.62 158.474C725.983 158.764 725.216 158.909 724.319 158.909ZM746.719 140.909V154H743.276V140.909H746.719ZM745.04 146.653V149.517C744.761 149.642 744.415 149.761 744 149.875C743.585 149.983 743.151 150.071 742.696 150.139C742.242 150.207 741.815 150.241 741.418 150.241C739.537 150.241 738.057 149.855 736.977 149.082C735.898 148.304 735.358 147.062 735.358 145.358V140.892H738.784V145.358C738.784 145.864 738.869 146.264 739.04 146.56C739.216 146.855 739.494 147.068 739.875 147.199C740.261 147.324 740.776 147.386 741.418 147.386C742.014 147.386 742.6 147.324 743.173 147.199C743.747 147.074 744.369 146.892 745.04 146.653ZM749.108 140.909H752.577V151.119H756.267V140.909H759.736V151.119H763.426V140.909H766.895V154H749.108V140.909ZM772.748 149.21L777.461 140.909H781.041V154H777.58V145.673L772.884 154H769.279V140.909H772.748V149.21ZM786.99 149.21L791.703 140.909H795.283V154H791.822V145.673L787.126 154H783.521V140.909H786.99V149.21ZM791.081 136.341H793.612C793.606 137.375 793.223 138.207 792.462 138.838C791.706 139.469 790.683 139.784 789.393 139.784C788.098 139.784 787.072 139.469 786.317 138.838C785.561 138.207 785.183 137.375 785.183 136.341H787.697C787.692 136.733 787.817 137.085 788.072 137.398C788.334 137.71 788.774 137.866 789.393 137.866C789.996 137.866 790.427 137.713 790.689 137.406C790.95 137.099 791.081 136.744 791.081 136.341ZM670.789 188V174.909H674.42V179.989H675.443L679.005 174.909H683.266L678.639 181.403L683.318 188H679.005L675.775 183.355H674.42V188H670.789ZM686.874 192.909C686.414 192.909 685.982 192.872 685.579 192.798C685.181 192.73 684.851 192.642 684.59 192.534L685.408 189.824C685.834 189.955 686.218 190.026 686.559 190.037C686.905 190.048 687.204 189.969 687.454 189.798C687.709 189.628 687.917 189.338 688.076 188.929L688.289 188.375L683.593 174.909H687.411L690.121 184.523H690.258L692.993 174.909H696.837L691.749 189.415C691.505 190.119 691.172 190.733 690.752 191.256C690.337 191.784 689.812 192.19 689.175 192.474C688.539 192.764 687.772 192.909 686.874 192.909ZM698.265 192.909V174.909H701.845V177.108H702.007C702.166 176.756 702.396 176.398 702.697 176.034C703.004 175.665 703.401 175.358 703.89 175.114C704.384 174.864 704.998 174.739 705.731 174.739C706.686 174.739 707.566 174.989 708.373 175.489C709.18 175.983 709.825 176.73 710.308 177.73C710.791 178.724 711.032 179.972 711.032 181.472C711.032 182.932 710.796 184.165 710.325 185.17C709.859 186.17 709.223 186.929 708.416 187.446C707.615 187.957 706.717 188.213 705.723 188.213C705.018 188.213 704.419 188.097 703.924 187.864C703.436 187.631 703.035 187.338 702.723 186.986C702.41 186.628 702.171 186.267 702.007 185.903H701.896V192.909H698.265ZM701.819 181.455C701.819 182.233 701.927 182.912 702.143 183.491C702.359 184.071 702.671 184.523 703.08 184.847C703.49 185.165 703.987 185.324 704.572 185.324C705.163 185.324 705.663 185.162 706.072 184.838C706.481 184.509 706.791 184.054 707.001 183.474C707.217 182.889 707.325 182.216 707.325 181.455C707.325 180.699 707.22 180.034 707.009 179.46C706.799 178.886 706.49 178.437 706.08 178.114C705.671 177.79 705.169 177.628 704.572 177.628C703.981 177.628 703.481 177.784 703.072 178.097C702.669 178.409 702.359 178.852 702.143 179.426C701.927 180 701.819 180.676 701.819 181.455ZM718.937 188.256C717.596 188.256 716.443 187.972 715.477 187.403C714.517 186.83 713.778 186.034 713.261 185.017C712.75 184 712.494 182.83 712.494 181.506C712.494 180.165 712.753 178.989 713.27 177.977C713.793 176.96 714.534 176.168 715.494 175.599C716.454 175.026 717.596 174.739 718.92 174.739C720.062 174.739 721.062 174.946 721.92 175.361C722.778 175.776 723.457 176.358 723.957 177.108C724.457 177.858 724.733 178.739 724.784 179.75H721.358C721.261 179.097 721.006 178.571 720.591 178.173C720.182 177.77 719.645 177.568 718.98 177.568C718.418 177.568 717.926 177.722 717.506 178.028C717.091 178.33 716.767 178.77 716.534 179.349C716.301 179.929 716.185 180.631 716.185 181.455C716.185 182.29 716.298 183 716.525 183.585C716.758 184.17 717.085 184.616 717.506 184.923C717.926 185.23 718.418 185.384 718.98 185.384C719.395 185.384 719.767 185.298 720.096 185.128C720.432 184.957 720.707 184.71 720.923 184.386C721.145 184.057 721.29 183.662 721.358 183.202H724.784C724.727 184.202 724.454 185.082 723.966 185.844C723.483 186.599 722.815 187.19 721.963 187.616C721.111 188.043 720.102 188.256 718.937 188.256Z" fill="#18191F"/>
<path id="Description_4" d="M915.779 136.545V154H912.131V139.545H905.074V154H901.427V136.545H915.779ZM918.794 158.909V140.909H922.374V143.108H922.536C922.695 142.756 922.925 142.398 923.226 142.034C923.533 141.665 923.931 141.358 924.419 141.114C924.914 140.864 925.527 140.739 926.26 140.739C927.215 140.739 928.095 140.989 928.902 141.489C929.709 141.983 930.354 142.73 930.837 143.73C931.32 144.724 931.561 145.972 931.561 147.472C931.561 148.932 931.326 150.165 930.854 151.17C930.388 152.17 929.752 152.929 928.945 153.446C928.144 153.957 927.246 154.213 926.252 154.213C925.547 154.213 924.948 154.097 924.453 153.864C923.965 153.631 923.564 153.338 923.252 152.986C922.939 152.628 922.701 152.267 922.536 151.903H922.425V158.909H918.794ZM922.348 147.455C922.348 148.233 922.456 148.912 922.672 149.491C922.888 150.071 923.201 150.523 923.61 150.847C924.019 151.165 924.516 151.324 925.101 151.324C925.692 151.324 926.192 151.162 926.601 150.838C927.01 150.509 927.32 150.054 927.53 149.474C927.746 148.889 927.854 148.216 927.854 147.455C927.854 146.699 927.749 146.034 927.539 145.46C927.328 144.886 927.019 144.437 926.61 144.114C926.201 143.79 925.698 143.628 925.101 143.628C924.51 143.628 924.01 143.784 923.601 144.097C923.198 144.409 922.888 144.852 922.672 145.426C922.456 146 922.348 146.676 922.348 147.455ZM939.467 154.256C938.143 154.256 936.998 153.974 936.032 153.412C935.072 152.844 934.33 152.054 933.808 151.043C933.285 150.026 933.023 148.847 933.023 147.506C933.023 146.153 933.285 144.972 933.808 143.96C934.33 142.943 935.072 142.153 936.032 141.591C936.998 141.023 938.143 140.739 939.467 140.739C940.79 140.739 941.933 141.023 942.893 141.591C943.859 142.153 944.603 142.943 945.126 143.96C945.648 144.972 945.91 146.153 945.91 147.506C945.91 148.847 945.648 150.026 945.126 151.043C944.603 152.054 943.859 152.844 942.893 153.412C941.933 153.974 940.79 154.256 939.467 154.256ZM939.484 151.443C940.086 151.443 940.589 151.273 940.992 150.932C941.396 150.585 941.7 150.114 941.904 149.517C942.114 148.92 942.219 148.241 942.219 147.48C942.219 146.719 942.114 146.04 941.904 145.443C941.7 144.847 941.396 144.375 940.992 144.028C940.589 143.682 940.086 143.509 939.484 143.509C938.876 143.509 938.364 143.682 937.95 144.028C937.54 144.375 937.231 144.847 937.021 145.443C936.816 146.04 936.714 146.719 936.714 147.48C936.714 148.241 936.816 148.92 937.021 149.517C937.231 150.114 937.54 150.585 937.95 150.932C938.364 151.273 938.876 151.443 939.484 151.443ZM951.309 149.21L956.022 140.909H959.602V154H956.142V145.673L951.446 154H947.841V140.909H951.309V149.21ZM955.4 136.341H957.931C957.926 137.375 957.542 138.207 956.781 138.838C956.025 139.469 955.003 139.784 953.713 139.784C952.417 139.784 951.392 139.469 950.636 138.838C949.88 138.207 949.503 137.375 949.503 136.341H952.017C952.011 136.733 952.136 137.085 952.392 137.398C952.653 137.71 953.093 137.866 953.713 137.866C954.315 137.866 954.747 137.713 955.008 137.406C955.27 137.099 955.4 136.744 955.4 136.341ZM960.768 143.764V140.909H972.631V143.764H968.413V154H964.952V143.764H960.768ZM977.871 149.21L982.584 140.909H986.164V154H982.704V145.673L978.008 154H974.402V140.909H977.871V149.21ZM993.769 154V140.909H997.4V145.989H998.422L1001.98 140.909H1006.25L1001.62 147.403L1006.3 154H1001.98L998.755 149.355H997.4V154H993.769ZM1009.85 158.909C1009.39 158.909 1008.96 158.872 1008.56 158.798C1008.16 158.73 1007.83 158.642 1007.57 158.534L1008.39 155.824C1008.81 155.955 1009.2 156.026 1009.54 156.037C1009.89 156.048 1010.18 155.969 1010.43 155.798C1010.69 155.628 1010.9 155.338 1011.06 154.929L1011.27 154.375L1006.57 140.909H1010.39L1013.1 150.523H1013.24L1015.97 140.909H1019.82L1014.73 155.415C1014.48 156.119 1014.15 156.733 1013.73 157.256C1013.32 157.784 1012.79 158.19 1012.16 158.474C1011.52 158.764 1010.75 158.909 1009.85 158.909ZM1021.24 158.909V140.909H1024.82V143.108H1024.99C1025.15 142.756 1025.38 142.398 1025.68 142.034C1025.98 141.665 1026.38 141.358 1026.87 141.114C1027.36 140.864 1027.98 140.739 1028.71 140.739C1029.67 140.739 1030.55 140.989 1031.35 141.489C1032.16 141.983 1032.8 142.73 1033.29 143.73C1033.77 144.724 1034.01 145.972 1034.01 147.472C1034.01 148.932 1033.78 150.165 1033.3 151.17C1032.84 152.17 1032.2 152.929 1031.4 153.446C1030.59 153.957 1029.7 154.213 1028.7 154.213C1028 154.213 1027.4 154.097 1026.9 153.864C1026.42 153.631 1026.01 153.338 1025.7 152.986C1025.39 152.628 1025.15 152.267 1024.99 151.903H1024.88V158.909H1021.24ZM1024.8 147.455C1024.8 148.233 1024.91 148.912 1025.12 149.491C1025.34 150.071 1025.65 150.523 1026.06 150.847C1026.47 151.165 1026.97 151.324 1027.55 151.324C1028.14 151.324 1028.64 151.162 1029.05 150.838C1029.46 150.509 1029.77 150.054 1029.98 149.474C1030.2 148.889 1030.3 148.216 1030.3 147.455C1030.3 146.699 1030.2 146.034 1029.99 145.46C1029.78 144.886 1029.47 144.437 1029.06 144.114C1028.65 143.79 1028.15 143.628 1027.55 143.628C1026.96 143.628 1026.46 143.784 1026.05 144.097C1025.65 144.409 1025.34 144.852 1025.12 145.426C1024.91 146 1024.8 146.676 1024.8 147.455ZM1041.92 154.256C1040.58 154.256 1039.42 153.972 1038.46 153.403C1037.5 152.83 1036.76 152.034 1036.24 151.017C1035.73 150 1035.47 148.83 1035.47 147.506C1035.47 146.165 1035.73 144.989 1036.25 143.977C1036.77 142.96 1037.51 142.168 1038.47 141.599C1039.43 141.026 1040.58 140.739 1041.9 140.739C1043.04 140.739 1044.04 140.946 1044.9 141.361C1045.76 141.776 1046.44 142.358 1046.94 143.108C1047.44 143.858 1047.71 144.739 1047.76 145.75H1044.34C1044.24 145.097 1043.99 144.571 1043.57 144.173C1043.16 143.77 1042.62 143.568 1041.96 143.568C1041.4 143.568 1040.91 143.722 1040.49 144.028C1040.07 144.33 1039.75 144.77 1039.51 145.349C1039.28 145.929 1039.16 146.631 1039.16 147.455C1039.16 148.29 1039.28 149 1039.51 149.585C1039.74 150.17 1040.06 150.616 1040.49 150.923C1040.91 151.23 1041.4 151.384 1041.96 151.384C1042.37 151.384 1042.75 151.298 1043.08 151.128C1043.41 150.957 1043.69 150.71 1043.9 150.386C1044.12 150.057 1044.27 149.662 1044.34 149.202H1047.76C1047.71 150.202 1047.43 151.082 1046.95 151.844C1046.46 152.599 1045.8 153.19 1044.94 153.616C1044.09 154.043 1043.08 154.256 1041.92 154.256ZM1058.25 149.21L1062.96 140.909H1066.54V154H1063.08V145.673L1058.39 154H1054.78V140.909H1058.25V149.21ZM869.561 188V174.909H881.007V188H877.538V177.764H872.987V188H869.561ZM889.389 188.256C888.065 188.256 886.921 187.974 885.955 187.412C884.994 186.844 884.253 186.054 883.73 185.043C883.207 184.026 882.946 182.847 882.946 181.506C882.946 180.153 883.207 178.972 883.73 177.96C884.253 176.943 884.994 176.153 885.955 175.591C886.921 175.023 888.065 174.739 889.389 174.739C890.713 174.739 891.855 175.023 892.815 175.591C893.781 176.153 894.526 176.943 895.048 177.96C895.571 178.972 895.832 180.153 895.832 181.506C895.832 182.847 895.571 184.026 895.048 185.043C894.526 186.054 893.781 186.844 892.815 187.412C891.855 187.974 890.713 188.256 889.389 188.256ZM889.406 185.443C890.009 185.443 890.511 185.273 890.915 184.932C891.318 184.585 891.622 184.114 891.827 183.517C892.037 182.92 892.142 182.241 892.142 181.48C892.142 180.719 892.037 180.04 891.827 179.443C891.622 178.847 891.318 178.375 890.915 178.028C890.511 177.682 890.009 177.509 889.406 177.509C888.798 177.509 888.287 177.682 887.872 178.028C887.463 178.375 887.153 178.847 886.943 179.443C886.739 180.04 886.636 180.719 886.636 181.48C886.636 182.241 886.739 182.92 886.943 183.517C887.153 184.114 887.463 184.585 887.872 184.932C888.287 185.273 888.798 185.443 889.406 185.443ZM897.763 192.909V174.909H901.343V177.108H901.505C901.664 176.756 901.894 176.398 902.195 176.034C902.502 175.665 902.9 175.358 903.388 175.114C903.883 174.864 904.496 174.739 905.229 174.739C906.184 174.739 907.064 174.989 907.871 175.489C908.678 175.983 909.323 176.73 909.806 177.73C910.289 178.724 910.53 179.972 910.53 181.472C910.53 182.932 910.294 184.165 909.823 185.17C909.357 186.17 908.721 186.929 907.914 187.446C907.113 187.957 906.215 188.213 905.221 188.213C904.516 188.213 903.917 188.097 903.422 187.864C902.934 187.631 902.533 187.338 902.221 186.986C901.908 186.628 901.669 186.267 901.505 185.903H901.394V192.909H897.763ZM901.317 181.455C901.317 182.233 901.425 182.912 901.641 183.491C901.857 184.071 902.169 184.523 902.579 184.847C902.988 185.165 903.485 185.324 904.07 185.324C904.661 185.324 905.161 185.162 905.57 184.838C905.979 184.509 906.289 184.054 906.499 183.474C906.715 182.889 906.823 182.216 906.823 181.455C906.823 180.699 906.718 180.034 906.508 179.46C906.297 178.886 905.988 178.437 905.579 178.114C905.169 177.79 904.667 177.628 904.07 177.628C903.479 177.628 902.979 177.784 902.57 178.097C902.167 178.409 901.857 178.852 901.641 179.426C901.425 180 901.317 180.676 901.317 181.455ZM918.487 188.256C917.14 188.256 915.981 187.983 915.009 187.438C914.043 186.886 913.299 186.108 912.776 185.102C912.254 184.091 911.992 182.895 911.992 181.514C911.992 180.168 912.254 178.986 912.776 177.969C913.299 176.952 914.035 176.159 914.984 175.591C915.938 175.023 917.058 174.739 918.342 174.739C919.205 174.739 920.009 174.878 920.754 175.156C921.504 175.429 922.157 175.841 922.714 176.392C923.276 176.943 923.714 177.636 924.026 178.472C924.339 179.301 924.495 180.273 924.495 181.386V182.384H913.441V180.134H921.078C921.078 179.611 920.964 179.148 920.737 178.744C920.509 178.341 920.194 178.026 919.791 177.798C919.393 177.565 918.93 177.449 918.401 177.449C917.85 177.449 917.362 177.577 916.936 177.832C916.515 178.082 916.186 178.42 915.947 178.847C915.708 179.267 915.586 179.736 915.58 180.253V182.392C915.58 183.04 915.7 183.599 915.938 184.071C916.183 184.543 916.526 184.906 916.97 185.162C917.413 185.418 917.938 185.545 918.546 185.545C918.95 185.545 919.319 185.489 919.654 185.375C919.989 185.261 920.276 185.091 920.515 184.864C920.754 184.636 920.936 184.358 921.061 184.028L924.418 184.25C924.248 185.057 923.899 185.761 923.37 186.364C922.847 186.96 922.171 187.426 921.342 187.761C920.518 188.091 919.566 188.256 918.487 188.256ZM926.434 188V174.909H930.065V179.989H931.088L934.65 174.909H938.912L934.284 181.403L938.963 188H934.65L931.42 183.355H930.065V188H926.434ZM945.443 188.256C944.119 188.256 942.974 187.974 942.008 187.412C941.048 186.844 940.306 186.054 939.784 185.043C939.261 184.026 939 182.847 939 181.506C939 180.153 939.261 178.972 939.784 177.96C940.306 176.943 941.048 176.153 942.008 175.591C942.974 175.023 944.119 174.739 945.443 174.739C946.767 174.739 947.909 175.023 948.869 175.591C949.835 176.153 950.579 176.943 951.102 177.96C951.625 178.972 951.886 180.153 951.886 181.506C951.886 182.847 951.625 184.026 951.102 185.043C950.579 186.054 949.835 186.844 948.869 187.412C947.909 187.974 946.767 188.256 945.443 188.256ZM945.46 185.443C946.062 185.443 946.565 185.273 946.968 184.932C947.372 184.585 947.676 184.114 947.88 183.517C948.09 182.92 948.196 182.241 948.196 181.48C948.196 180.719 948.09 180.04 947.88 179.443C947.676 178.847 947.372 178.375 946.968 178.028C946.565 177.682 946.062 177.509 945.46 177.509C944.852 177.509 944.34 177.682 943.926 178.028C943.517 178.375 943.207 178.847 942.997 179.443C942.792 180.04 942.69 180.719 942.69 181.48C942.69 182.241 942.792 182.92 942.997 183.517C943.207 184.114 943.517 184.585 943.926 184.932C944.34 185.273 944.852 185.443 945.46 185.443ZM961.555 183.986L965.101 174.909H967.862L962.757 188H960.345L955.359 174.909H958.112L961.555 183.986ZM957.285 174.909V188H953.817V174.909H957.285ZM966.004 188V174.909H969.43V188H966.004ZM979.547 183.986L983.093 174.909H985.854L980.749 188H978.337L973.351 174.909H976.104L979.547 183.986ZM975.277 174.909V188H971.809V174.909H975.277ZM983.996 188V174.909H987.422V188H983.996ZM995.766 188.256C994.42 188.256 993.261 187.983 992.289 187.438C991.323 186.886 990.579 186.108 990.056 185.102C989.533 184.091 989.272 182.895 989.272 181.514C989.272 180.168 989.533 178.986 990.056 177.969C990.579 176.952 991.315 176.159 992.263 175.591C993.218 175.023 994.337 174.739 995.621 174.739C996.485 174.739 997.289 174.878 998.033 175.156C998.783 175.429 999.437 175.841 999.994 176.392C1000.56 176.943 1000.99 177.636 1001.31 178.472C1001.62 179.301 1001.77 180.273 1001.77 181.386V182.384H990.721V180.134H998.357C998.357 179.611 998.244 179.148 998.016 178.744C997.789 178.341 997.474 178.026 997.07 177.798C996.673 177.565 996.21 177.449 995.681 177.449C995.13 177.449 994.641 177.577 994.215 177.832C993.795 178.082 993.465 178.42 993.227 178.847C992.988 179.267 992.866 179.736 992.86 180.253V182.392C992.86 183.04 992.979 183.599 993.218 184.071C993.462 184.543 993.806 184.906 994.249 185.162C994.692 185.418 995.218 185.545 995.826 185.545C996.229 185.545 996.599 185.489 996.934 185.375C997.269 185.261 997.556 185.091 997.795 184.864C998.033 184.636 998.215 184.358 998.34 184.028L1001.7 184.25C1001.53 185.057 1001.18 185.761 1000.65 186.364C1000.13 186.96 999.451 187.426 998.621 187.761C997.798 188.091 996.846 188.256 995.766 188.256ZM1012.82 180.006V182.861H1005.99V180.006H1012.82ZM1007.18 174.909V188H1003.71V174.909H1007.18ZM1015.1 174.909V188H1011.66V174.909H1015.1ZM1016.46 191.835V185.119H1017.47C1017.76 184.937 1017.99 184.648 1018.17 184.25C1018.35 183.852 1018.5 183.384 1018.61 182.844C1018.73 182.304 1018.82 181.722 1018.89 181.097C1018.95 180.466 1019.01 179.83 1019.06 179.188L1019.4 174.909H1029.44V185.119H1031.47V191.835H1028.01V188H1020.01V191.835H1016.46ZM1021.08 185.119H1026.02V177.705H1022.49L1022.35 179.188C1022.26 180.585 1022.12 181.773 1021.94 182.75C1021.75 183.722 1021.47 184.511 1021.08 185.119ZM1039.07 188.256C1037.75 188.256 1036.6 187.974 1035.64 187.412C1034.68 186.844 1033.94 186.054 1033.41 185.043C1032.89 184.026 1032.63 182.847 1032.63 181.506C1032.63 180.153 1032.89 178.972 1033.41 177.96C1033.94 176.943 1034.68 176.153 1035.64 175.591C1036.6 175.023 1037.75 174.739 1039.07 174.739C1040.4 174.739 1041.54 175.023 1042.5 175.591C1043.47 176.153 1044.21 176.943 1044.73 177.96C1045.26 178.972 1045.52 180.153 1045.52 181.506C1045.52 182.847 1045.26 184.026 1044.73 185.043C1044.21 186.054 1043.47 186.844 1042.5 187.412C1041.54 187.974 1040.4 188.256 1039.07 188.256ZM1039.09 185.443C1039.69 185.443 1040.2 185.273 1040.6 184.932C1041 184.585 1041.31 184.114 1041.51 183.517C1041.72 182.92 1041.83 182.241 1041.83 181.48C1041.83 180.719 1041.72 180.04 1041.51 179.443C1041.31 178.847 1041 178.375 1040.6 178.028C1040.2 177.682 1039.69 177.509 1039.09 177.509C1038.48 177.509 1037.97 177.682 1037.56 178.028C1037.15 178.375 1036.84 178.847 1036.63 179.443C1036.42 180.04 1036.32 180.719 1036.32 181.48C1036.32 182.241 1036.42 182.92 1036.63 183.517C1036.84 184.114 1037.15 184.585 1037.56 184.932C1037.97 185.273 1038.48 185.443 1039.09 185.443ZM1047.45 188V174.909H1053.03C1054.64 174.909 1055.92 175.216 1056.86 175.83C1057.79 176.443 1058.26 177.315 1058.26 178.446C1058.26 179.156 1058 179.747 1057.47 180.219C1056.94 180.69 1056.21 181.009 1055.27 181.173C1056.06 181.23 1056.72 181.409 1057.27 181.71C1057.83 182.006 1058.25 182.389 1058.54 182.861C1058.84 183.332 1058.99 183.855 1058.99 184.429C1058.99 185.173 1058.79 185.812 1058.39 186.347C1058 186.881 1057.42 187.29 1056.66 187.574C1055.9 187.858 1054.98 188 1053.89 188H1047.45ZM1050.83 185.281H1053.89C1054.4 185.281 1054.79 185.162 1055.08 184.923C1055.37 184.679 1055.51 184.347 1055.51 183.926C1055.51 183.46 1055.37 183.094 1055.08 182.827C1054.79 182.56 1054.4 182.426 1053.89 182.426H1050.83V185.281ZM1050.83 180.295H1053.11C1053.47 180.295 1053.78 180.244 1054.04 180.142C1054.3 180.034 1054.5 179.881 1054.63 179.682C1054.77 179.483 1054.85 179.247 1054.85 178.974C1054.85 178.571 1054.68 178.256 1054.36 178.028C1054.04 177.801 1053.59 177.688 1053.03 177.688H1050.83V180.295ZM1064.58 188.247C1063.74 188.247 1063 188.102 1062.35 187.812C1061.69 187.517 1061.18 187.082 1060.79 186.509C1060.42 185.929 1060.23 185.207 1060.23 184.344C1060.23 183.616 1060.37 183.006 1060.63 182.511C1060.9 182.017 1061.26 181.619 1061.72 181.318C1062.18 181.017 1062.71 180.79 1063.29 180.636C1063.88 180.483 1064.5 180.375 1065.15 180.312C1065.91 180.233 1066.52 180.159 1066.99 180.091C1067.46 180.017 1067.79 179.909 1068 179.767C1068.22 179.625 1068.32 179.415 1068.32 179.136V179.085C1068.32 178.545 1068.15 178.128 1067.81 177.832C1067.47 177.537 1067 177.389 1066.38 177.389C1065.72 177.389 1065.2 177.534 1064.82 177.824C1064.43 178.108 1064.18 178.466 1064.05 178.898L1060.69 178.625C1060.86 177.83 1061.2 177.142 1061.7 176.562C1062.2 175.977 1062.84 175.528 1063.63 175.216C1064.43 174.898 1065.35 174.739 1066.39 174.739C1067.12 174.739 1067.82 174.824 1068.48 174.994C1069.15 175.165 1069.75 175.429 1070.26 175.787C1070.79 176.145 1071.2 176.605 1071.5 177.168C1071.8 177.724 1071.95 178.392 1071.95 179.17V188H1068.51V186.185H1068.41C1068.2 186.594 1067.91 186.955 1067.56 187.267C1067.21 187.574 1066.79 187.815 1066.29 187.991C1065.8 188.162 1065.23 188.247 1064.58 188.247ZM1065.62 185.741C1066.15 185.741 1066.62 185.636 1067.03 185.426C1067.44 185.21 1067.76 184.92 1068 184.557C1068.23 184.193 1068.35 183.781 1068.35 183.321V181.932C1068.23 182.006 1068.08 182.074 1067.88 182.136C1067.68 182.193 1067.47 182.247 1067.22 182.298C1066.98 182.344 1066.73 182.386 1066.49 182.426C1066.24 182.46 1066.02 182.491 1065.82 182.52C1065.4 182.582 1065.02 182.682 1064.71 182.818C1064.39 182.955 1064.14 183.139 1063.97 183.372C1063.79 183.599 1063.7 183.884 1063.7 184.224C1063.7 184.719 1063.88 185.097 1064.24 185.358C1064.6 185.614 1065.06 185.741 1065.62 185.741ZM1073.02 177.764V174.909H1084.89V177.764H1080.67V188H1077.21V177.764H1073.02ZM1088.93 178.932H1092.85C1094.58 178.932 1095.93 179.347 1096.9 180.176C1097.87 181 1098.36 182.102 1098.36 183.483C1098.36 184.381 1098.14 185.17 1097.7 185.852C1097.27 186.528 1096.63 187.057 1095.81 187.438C1094.99 187.812 1094 188 1092.85 188H1086.66V174.909H1090.13V185.145H1092.85C1093.45 185.145 1093.95 184.991 1094.35 184.685C1094.74 184.378 1094.94 183.986 1094.94 183.509C1094.94 183.003 1094.74 182.591 1094.35 182.273C1093.95 181.949 1093.45 181.787 1092.85 181.787H1088.93V178.932ZM925.584 222.256C924.238 222.256 923.078 221.983 922.107 221.438C921.141 220.886 920.397 220.108 919.874 219.102C919.351 218.091 919.09 216.895 919.09 215.514C919.09 214.168 919.351 212.986 919.874 211.969C920.397 210.952 921.132 210.159 922.081 209.591C923.036 209.023 924.155 208.739 925.439 208.739C926.303 208.739 927.107 208.878 927.851 209.156C928.601 209.429 929.255 209.841 929.811 210.392C930.374 210.943 930.811 211.636 931.124 212.472C931.436 213.301 931.593 214.273 931.593 215.386V216.384H920.539V214.134H928.175C928.175 213.611 928.061 213.148 927.834 212.744C927.607 212.341 927.292 212.026 926.888 211.798C926.49 211.565 926.027 211.449 925.499 211.449C924.948 211.449 924.459 211.577 924.033 211.832C923.613 212.082 923.283 212.42 923.044 212.847C922.806 213.267 922.684 213.736 922.678 214.253V216.392C922.678 217.04 922.797 217.599 923.036 218.071C923.28 218.543 923.624 218.906 924.067 219.162C924.51 219.418 925.036 219.545 925.644 219.545C926.047 219.545 926.417 219.489 926.752 219.375C927.087 219.261 927.374 219.091 927.613 218.864C927.851 218.636 928.033 218.358 928.158 218.028L931.516 218.25C931.346 219.057 930.996 219.761 930.468 220.364C929.945 220.96 929.269 221.426 928.439 221.761C927.615 222.091 926.664 222.256 925.584 222.256ZM942.498 208.909V211.764H937.06V222H933.532V208.909H942.498ZM949.728 222.256C948.404 222.256 947.259 221.974 946.293 221.412C945.333 220.844 944.591 220.054 944.069 219.043C943.546 218.026 943.285 216.847 943.285 215.506C943.285 214.153 943.546 212.972 944.069 211.96C944.591 210.943 945.333 210.153 946.293 209.591C947.259 209.023 948.404 208.739 949.728 208.739C951.052 208.739 952.194 209.023 953.154 209.591C954.12 210.153 954.864 210.943 955.387 211.96C955.91 212.972 956.171 214.153 956.171 215.506C956.171 216.847 955.91 218.026 955.387 219.043C954.864 220.054 954.12 220.844 953.154 221.412C952.194 221.974 951.052 222.256 949.728 222.256ZM949.745 219.443C950.347 219.443 950.85 219.273 951.253 218.932C951.657 218.585 951.961 218.114 952.165 217.517C952.375 216.92 952.481 216.241 952.481 215.48C952.481 214.719 952.375 214.04 952.165 213.443C951.961 212.847 951.657 212.375 951.253 212.028C950.85 211.682 950.347 211.509 949.745 211.509C949.137 211.509 948.625 211.682 948.211 212.028C947.802 212.375 947.492 212.847 947.282 213.443C947.077 214.04 946.975 214.719 946.975 215.48C946.975 216.241 947.077 216.92 947.282 217.517C947.492 218.114 947.802 218.585 948.211 218.932C948.625 219.273 949.137 219.443 949.745 219.443ZM962.204 225.835V219.119H963.209C963.499 218.937 963.732 218.648 963.908 218.25C964.09 217.852 964.238 217.384 964.351 216.844C964.471 216.304 964.562 215.722 964.624 215.097C964.692 214.466 964.752 213.83 964.803 213.188L965.144 208.909H975.184V219.119H977.212V225.835H973.752V222H965.749V225.835H962.204ZM966.823 219.119H971.758V211.705H968.229L968.093 213.188C967.996 214.585 967.857 215.773 967.675 216.75C967.493 217.722 967.209 218.511 966.823 219.119ZM978.898 226.909V208.909H982.477V211.108H982.639C982.798 210.756 983.029 210.398 983.33 210.034C983.637 209.665 984.034 209.358 984.523 209.114C985.017 208.864 985.631 208.739 986.364 208.739C987.318 208.739 988.199 208.989 989.006 209.489C989.813 209.983 990.458 210.73 990.941 211.73C991.423 212.724 991.665 213.972 991.665 215.472C991.665 216.932 991.429 218.165 990.958 219.17C990.492 220.17 989.855 220.929 989.048 221.446C988.247 221.957 987.35 222.213 986.355 222.213C985.651 222.213 985.051 222.097 984.557 221.864C984.068 221.631 983.668 221.338 983.355 220.986C983.043 220.628 982.804 220.267 982.639 219.903H982.529V226.909H978.898ZM982.452 215.455C982.452 216.233 982.56 216.912 982.776 217.491C982.992 218.071 983.304 218.523 983.713 218.847C984.122 219.165 984.62 219.324 985.205 219.324C985.796 219.324 986.296 219.162 986.705 218.838C987.114 218.509 987.423 218.054 987.634 217.474C987.85 216.889 987.958 216.216 987.958 215.455C987.958 214.699 987.852 214.034 987.642 213.46C987.432 212.886 987.122 212.437 986.713 212.114C986.304 211.79 985.801 211.628 985.205 211.628C984.614 211.628 984.114 211.784 983.705 212.097C983.301 212.409 982.992 212.852 982.776 213.426C982.56 214 982.452 214.676 982.452 215.455ZM995.475 226.909C995.015 226.909 994.583 226.872 994.18 226.798C993.782 226.73 993.452 226.642 993.191 226.534L994.009 223.824C994.435 223.955 994.819 224.026 995.16 224.037C995.506 224.048 995.805 223.969 996.055 223.798C996.31 223.628 996.518 223.338 996.677 222.929L996.89 222.375L992.194 208.909H996.012L998.722 218.523H998.859L1001.59 208.909H1005.44L1000.35 223.415C1000.11 224.119 999.773 224.733 999.353 225.256C998.938 225.784 998.413 226.19 997.776 226.474C997.14 226.764 996.373 226.909 995.475 226.909ZM1015.83 208.909V211.764H1010.39V222H1006.87V208.909H1015.83ZM1021.08 217.21L1025.8 208.909H1029.38V222H1025.92V213.673L1021.22 222H1017.62V208.909H1021.08V217.21ZM1039.6 217.986L1043.14 208.909H1045.9L1040.8 222H1038.39L1033.4 208.909H1036.15L1039.6 217.986ZM1035.33 208.909V222H1031.86V208.909H1035.33ZM1044.05 222V208.909H1047.47V222H1044.05Z" fill="#18191F"/>
</g>
</g>
<defs>
<clipPath id="clip0_30_57">
<rect width="924.417" height="104" fill="white" transform="translate(89)"/>
</clipPath>
<clipPath id="clip1_30_57">
<rect width="252.417" height="104" fill="white" transform="translate(89)"/>
</clipPath>
<clipPath id="clip2_30_57">
<rect width="252.417" height="72" fill="white" transform="translate(89 16)"/>
</clipPath>
<clipPath id="clip3_30_57">
<rect width="24" height="24" fill="white" transform="translate(113 40)"/>
</clipPath>
<clipPath id="clip4_30_57">
<rect width="255" height="154" fill="white" transform="translate(371.417)"/>
</clipPath>
<clipPath id="clip5_30_57">
<rect width="251.904" height="72" fill="white" transform="translate(371.417 16)"/>
</clipPath>
<clipPath id="clip6_30_57">
<rect width="255" height="210" fill="white" transform="translate(656.417)"/>
</clipPath>
<clipPath id="clip7_30_57">
<rect width="252.417" height="72" fill="white" transform="translate(656.417 16)"/>
</clipPath>
<clipPath id="clip8_30_57">
<rect width="72" height="102" fill="white" transform="translate(941.417)"/>
</clipPath>
</defs>
</svg>
