<svg width="925" height="104" viewBox="0 0 925 104" fill="none" xmlns="http://www.w3.org/2000/svg">
<g clip-path="url(#clip0_13_681)">
<g clip-path="url(#clip1_13_681)">
<g clip-path="url(#clip2_13_681)">
<rect y="16" width="72" height="72" rx="36" fill="#E7EBFC"/>
<g clip-path="url(#clip3_13_681)">
<path d="M42 50H48L45 46L42 50ZM42 54H48L45 58L42 54Z" fill="#2E4FD7"/>
<path d="M25 40H31V64H25C24.7348 64 24.4804 63.8946 24.2929 63.7071C24.1054 63.5196 24 63.2652 24 63V41C24 40.7348 24.1054 40.4804 24.2929 40.2929C24.4804 40.1054 24.7348 40 25 40Z" fill="#2E4FD7"/>
<path d="M33 40H39C39.2652 40 39.5196 40.1054 39.7071 40.2929C39.8946 40.4804 40 40.7348 40 41V63C40 63.2652 39.8946 63.5196 39.7071 63.7071C39.5196 63.8946 39.2652 64 39 64H33V40Z" fill="#2E4FD7"/>
</g>
<path d="M88 72.243C88 72.243 136.764 79.8915 172.025 73.674C207.286 67.4564 250.493 48.5911 250.493 48.5911" stroke="#B4B4B4" stroke-width="2" stroke-linecap="round" stroke-dasharray="2 6"/>
</g>
</g>
<g clip-path="url(#clip4_13_681)">
<g clip-path="url(#clip5_13_681)">
<rect x="282.417" y="16" width="72" height="72" rx="36" fill="#E7EBFC"/>
<path d="M329.417 46V42C329.417 41.7348 329.311 41.4804 329.124 41.2929C328.936 41.1054 328.682 41 328.417 41H308.417C308.151 41 307.897 41.1054 307.709 41.2929C307.522 41.4804 307.417 41.7348 307.417 42V46H329.417Z" fill="#2E4FD7"/>
<path d="M307.417 48V62C307.417 62.2652 307.522 62.5196 307.709 62.7071C307.897 62.8946 308.151 63 308.417 63H313.417V48H307.417Z" fill="#2E4FD7"/>
<path d="M315.417 63H328.417C328.682 63 328.936 62.8946 329.124 62.7071C329.311 62.5196 329.417 62.2652 329.417 62V48H315.417V63Z" fill="#2E4FD7"/>
<path d="M370.417 28.8474C370.417 28.8474 419.18 24.1989 454.441 30.4165C489.703 36.634 532.91 52.4994 532.91 52.4994" stroke="#B4B4B4" stroke-width="2" stroke-linecap="round" stroke-dasharray="2 6"/>
</g>
</g>
<g clip-path="url(#clip6_13_681)">
<g clip-path="url(#clip7_13_681)">
<rect x="567.417" y="16" width="72" height="72" rx="36" fill="#E7EBFC"/>
<path d="M596.417 41H593.417C593.151 41 592.897 41.1054 592.709 41.2929C592.522 41.4804 592.417 41.7348 592.417 42V62C592.417 62.2652 592.522 62.5196 592.709 62.7071C592.897 62.8946 593.151 63 593.417 63H596.417V41Z" fill="#2E4FD7"/>
<path d="M598.417 63H608.417V41H598.417V63ZM603.417 59C603.151 59 602.897 58.8946 602.709 58.7071C602.522 58.5196 602.417 58.2652 602.417 58C602.417 57.7348 602.522 57.4804 602.709 57.2929C602.897 57.1054 603.151 57 603.417 57C603.682 57 603.936 57.1054 604.124 57.2929C604.311 57.4804 604.417 57.7348 604.417 58C604.417 58.2652 604.311 58.5196 604.124 58.7071C603.936 58.8946 603.682 59 603.417 59ZM603.417 45C603.682 45 603.936 45.1054 604.124 45.2929C604.311 45.4804 604.417 45.7348 604.417 46C604.417 46.2652 604.311 46.5196 604.124 46.7071C603.936 46.8946 603.682 47 603.417 47C603.151 47 602.897 46.8946 602.709 46.7071C602.522 46.5196 602.417 46.2652 602.417 46C602.417 45.7348 602.522 45.4804 602.709 45.2929C602.897 45.1054 603.151 45 603.417 45ZM603.417 51C603.682 51 603.936 51.1054 604.124 51.2929C604.311 51.4804 604.417 51.7348 604.417 52C604.417 52.2652 604.311 52.5196 604.124 52.7071C603.936 52.8946 603.682 53 603.417 53C603.151 53 602.897 52.8946 602.709 52.7071C602.522 52.5196 602.417 52.2652 602.417 52C602.417 51.7348 602.522 51.4804 602.709 51.2929C602.897 51.1054 603.151 51 603.417 51Z" fill="#2E4FD7"/>
<path d="M613.417 41H610.417V63H613.417C613.682 63 613.936 62.8946 614.124 62.7071C614.311 62.5196 614.417 62.2652 614.417 62V42C614.417 41.7348 614.311 41.4804 614.124 41.2929C613.936 41.1054 613.682 41 613.417 41Z" fill="#2E4FD7"/>
<path d="M655.417 72.243C655.417 72.243 704.18 79.8915 739.442 73.674C774.703 67.4564 817.91 48.5911 817.91 48.5911" stroke="#B4B4B4" stroke-width="2" stroke-linecap="round" stroke-dasharray="2 6"/>
</g>
</g>
<g clip-path="url(#clip8_13_681)">
<rect x="852.417" y="14" width="72" height="72" rx="36" fill="#E7EBFC"/>
<path d="M885.417 48H878.417C878.151 48 877.897 47.8946 877.709 47.7071C877.522 47.5196 877.417 47.2652 877.417 47V40C877.417 39.7348 877.522 39.4804 877.709 39.2929C877.897 39.1054 878.151 39 878.417 39H885.417C885.682 39 885.936 39.1054 886.124 39.2929C886.311 39.4804 886.417 39.7348 886.417 40V47C886.417 47.2652 886.311 47.5196 886.124 47.7071C885.936 47.8946 885.682 48 885.417 48Z" fill="#2E4FD7"/>
<path d="M885.417 61H878.417C878.151 61 877.897 60.8946 877.709 60.7071C877.522 60.5196 877.417 60.2652 877.417 60V53C877.417 52.7348 877.522 52.4804 877.709 52.2929C877.897 52.1054 878.151 52 878.417 52H885.417C885.682 52 885.936 52.1054 886.124 52.2929C886.311 52.4804 886.417 52.7348 886.417 53V60C886.417 60.2652 886.311 60.5196 886.124 60.7071C885.936 60.8946 885.682 61 885.417 61Z" fill="#2E4FD7"/>
<path d="M889.417 40H899.417V42H889.417V40Z" fill="#2E4FD7"/>
<path d="M899.417 53H889.417V55H899.417V53Z" fill="#2E4FD7"/>
<path d="M899.417 58H889.417V60H899.417V58Z" fill="#2E4FD7"/>
<path d="M899.417 45H889.417V47H899.417V45Z" fill="#2E4FD7"/>
</g>
</g>
<defs>
<clipPath id="clip0_13_681">
<rect width="924.417" height="104" fill="white"/>
</clipPath>
<clipPath id="clip1_13_681">
<rect width="252.417" height="104" fill="white"/>
</clipPath>
<clipPath id="clip2_13_681">
<rect width="252.417" height="72" fill="white" transform="translate(0 16)"/>
</clipPath>
<clipPath id="clip3_13_681">
<rect width="24" height="24" fill="white" transform="translate(24 40)"/>
</clipPath>
<clipPath id="clip4_13_681">
<rect width="255" height="154" fill="white" transform="translate(282.417)"/>
</clipPath>
<clipPath id="clip5_13_681">
<rect width="251.904" height="72" fill="white" transform="translate(282.417 16)"/>
</clipPath>
<clipPath id="clip6_13_681">
<rect width="255" height="210" fill="white" transform="translate(567.417)"/>
</clipPath>
<clipPath id="clip7_13_681">
<rect width="252.417" height="72" fill="white" transform="translate(567.417 16)"/>
</clipPath>
<clipPath id="clip8_13_681">
<rect width="72" height="102" fill="white" transform="translate(852.417)"/>
</clipPath>
</defs>
</svg>
