<svg width="48" height="45" viewBox="0 0 48 45" fill="none" xmlns="http://www.w3.org/2000/svg">
<path d="M16.2823 0.104248H5.93216C3.07404 0.104248 0.75708 2.3364 0.75708 5.08989V15.0612C0.75708 17.8147 3.07404 20.0468 5.93216 20.0468H16.2823C19.1404 20.0468 21.4574 17.8147 21.4574 15.0612V5.08989C21.4574 2.3364 19.1404 0.104248 16.2823 0.104248Z" fill="white"/>
<path d="M42.1576 0.104248H31.8074C28.9493 0.104248 26.6323 2.3364 26.6323 5.08989V15.0612C26.6323 17.8147 28.9493 20.0468 31.8074 20.0468H42.1576C45.0157 20.0468 47.3326 17.8147 47.3326 15.0612V5.08989C47.3326 2.3364 45.0157 0.104248 42.1576 0.104248Z" fill="white"/>
<path d="M16.2823 25.0325H5.93216C3.07404 25.0325 0.75708 27.2646 0.75708 30.0181V39.9894C0.75708 42.7429 3.07404 44.975 5.93216 44.975H16.2823C19.1404 44.975 21.4574 42.7429 21.4574 39.9894V30.0181C21.4574 27.2646 19.1404 25.0325 16.2823 25.0325Z" fill="white"/>
<path d="M42.1576 25.0325H31.8074C28.9493 25.0325 26.6323 27.2646 26.6323 30.0181V39.9894C26.6323 42.7429 28.9493 44.975 31.8074 44.975H42.1576C45.0157 44.975 47.3326 42.7429 47.3326 39.9894V30.0181C47.3326 27.2646 45.0157 25.0325 42.1576 25.0325Z" fill="white"/>
</svg>
